<svg xmlns="http://www.w3.org/2000/svg" width="541.946" height="117.75" viewBox="0 0 541.946 117.75">
  <defs>
    <style>
      .cls-1 {
        fill: none;
        stroke: #fff;
        stroke-width: 9px;
      }
    </style>
  </defs>
  <path id="Path_1" data-name="Path 1" class="cls-1" d="M162.3,51.95,118.35,158H86.55l-4.5-70.95L52.5,158H20.7L13.95,51.95h27.9l.15,76.8,32.1-76.8h28.05l5.1,76.8,27.3-76.8Zm60-1.65q14.55,0,25.2,5.775a39.874,39.874,0,0,1,16.35,16.2q5.7,10.425,5.7,24.075a74.779,74.779,0,0,1-1.2,12.75,62.978,62.978,0,0,1-10.575,26.025,55.508,55.508,0,0,1-20.4,17.625,59.785,59.785,0,0,1-27.525,6.3q-14.85,0-25.575-5.7a38.946,38.946,0,0,1-16.35-16.05q-5.625-10.35-5.625-24.15a80.041,80.041,0,0,1,1.2-13.05,62.335,62.335,0,0,1,10.65-25.875A56.14,56.14,0,0,1,194.625,56.6,60.116,60.116,0,0,1,222.3,50.3Zm-1.95,23.85a29.728,29.728,0,0,0-20.775,7.875Q190.95,89.9,188.55,103.55a47.142,47.142,0,0,0-.75,7.5q0,11.25,6.3,17.625t17.7,6.375a29.38,29.38,0,0,0,20.625-7.95q8.625-7.95,11.025-21.3a46.535,46.535,0,0,0,.6-7.65q0-11.25-6.225-17.625T220.35,74.15Zm115.8-22.2q16.5,0,24.975,7.35T369.6,78.8a34.568,34.568,0,0,1-.6,6.75,37.266,37.266,0,0,1-9.9,19.65q-7.8,8.1-20.4,11.1L356.55,158H328.2l-15.9-40.05h-5.85L299.4,158H273.75l18.6-106.05Zm6.45,35.1a24.445,24.445,0,0,0,.3-3.15q0-10.35-12.75-10.35H314.4l-4.95,26.85h15.9Q340.35,100.4,342.6,87.05Zm55.65,51.3h34.2L429,158H369.15l18.6-106.05H413.4Zm147.3-33.6a65.319,65.319,0,0,1-11.475,27.675,60.174,60.174,0,0,1-22.5,18.825A68.568,68.568,0,0,1,480.9,158H440.85l18.6-106.05H499.5q14.85,0,25.5,5.1a36.178,36.178,0,0,1,16.125,14.475Q546.6,80.9,546.6,93.5A58.83,58.83,0,0,1,545.55,104.75Zm-62.85,30.3q14.85,0,24.6-7.95t12.3-22.35a41.9,41.9,0,0,0,.75-7.2q0-11.1-7.05-17.1t-19.95-6H481.2l-10.65,60.6Z" transform="translate(-9.154 -45.8)"/>
</svg>
