<svg xmlns="http://www.w3.org/2000/svg" width="2084" height="1199" viewBox="0 0 2084 1199">
  <g id="Symbol_1_1" data-name="Symbol 1 – 1" transform="translate(30 47)">
    <g id="Rectangle_1" data-name="Rectangle 1" transform="translate(-30 -47)" fill="#0f0202" stroke="#707070" stroke-width="1">
      <rect width="2084" height="1199" stroke="none"/>
      <rect x="0.5" y="0.5" width="2083" height="1198" fill="none"/>
    </g>
    <path id="Path_6" data-name="Path 6" d="M21.39-67.89A34.337,34.337,0,0,1,41.013-56.358,31.57,31.57,0,0,1,48.546-35.34q0,16-10.881,25.668T6.138,0H-42.594V-131.13H5.394q19.716,0,29.946,8.742T45.57-98.394q0,12.648-6.789,20.46A30.763,30.763,0,0,1,21.39-67.89Zm-47.058-5.766H2.6q12.462,0,19.065-5.766t6.6-16.182q0-10.044-6.51-15.81T1.86-117.18H-25.668ZM2.976-14.136q13.392,0,20.739-6.138t7.347-17.3q0-10.974-7.533-17.205T2.6-61.008H-25.668v46.872Z" transform="translate(687 605)" fill="none" stroke="#fff" stroke-linecap="round" stroke-width="4"/>
    <path id="Path_5" data-name="Path 5" d="M.093-132.8a63.717,63.717,0,0,1,32.829,8.556,60.89,60.89,0,0,1,22.971,23.9Q64.263-85,64.263-65.658t-8.37,34.689a60.89,60.89,0,0,1-22.971,23.9A63.717,63.717,0,0,1,.093,1.488,64.718,64.718,0,0,1-32.922-7.068a60.5,60.5,0,0,1-23.157-23.9q-8.37-15.345-8.37-34.689t8.37-34.689a60.5,60.5,0,0,1,23.157-23.9A64.718,64.718,0,0,1,.093-132.8Zm0,15.81a47.321,47.321,0,0,0-24.273,6.231A43.173,43.173,0,0,0-40.92-92.907q-6.045,11.625-6.045,27.249,0,15.438,6.045,27.156A43.048,43.048,0,0,0-24.18-20.553,47.32,47.32,0,0,0,.093-14.322,46.423,46.423,0,0,0,24.18-20.646,43.8,43.8,0,0,0,40.92-38.6q6.045-11.625,6.045-27.063,0-15.624-6.045-27.249a43.173,43.173,0,0,0-16.74-17.856A46.959,46.959,0,0,0,.093-116.994Z" transform="translate(817 605)" fill="none" stroke="#fff" stroke-linecap="round" stroke-width="4"/>
    <path id="Path_4" data-name="Path 4" d="M.744-132.432q22.878,0,38.409,11.346T60.078-90.21H42.222a40.117,40.117,0,0,0-15.531-19.158Q15.81-116.622.93-116.622a46.46,46.46,0,0,0-23.994,6.231A43.5,43.5,0,0,0-39.711-92.628Q-45.756-81.1-45.756-65.472q0,16,6.138,27.621A43.41,43.41,0,0,0-22.6-20,49.443,49.443,0,0,0,2.418-13.764a47.358,47.358,0,0,0,22.134-5.208A42.847,42.847,0,0,0,41.013-34.131a51.6,51.6,0,0,0,7.719-23.343H-2.79V-70.122H63.054V-54.5a65.122,65.122,0,0,1-9.672,28.272A58.016,58.016,0,0,1,31.806-6.138Q18.228,1.3.93,1.3q-18.972,0-33.48-8.463a58.827,58.827,0,0,1-22.6-23.622Q-63.24-45.942-63.24-65.472t8.091-34.689a59.466,59.466,0,0,1,22.6-23.715Q-18.042-132.432.744-132.432Z" transform="translate(963 605)" fill="none" stroke="#fff" stroke-linecap="round" stroke-width="4"/>
    <path id="Path_3" data-name="Path 3" d="M57.381-65.658q0,19.9-8,34.689A54.822,54.822,0,0,1,25.854-8.091Q10.323,0-11.439,0H-53.1V-131.13h41.664q21.762,0,37.293,7.9a53.735,53.735,0,0,1,23.529,22.692Q57.381-85.746,57.381-65.658ZM-12.741-15.252q25.668,0,39.246-13.206t13.578-37.2q0-23.994-13.485-37.293t-39.339-13.3H-36.177v101Z" transform="translate(1102 605)" fill="none" stroke="#fff" stroke-linecap="round" stroke-width="4"/>
    <path id="Path_2" data-name="Path 2" d="M28.83-30.318H-28.83L-39.8,0H-58.032L-9.486-128.712H9.672L58.032,0H39.8ZM23.994-43.524,0-109.74-23.994-43.524Z" transform="translate(1231 605)" fill="none" stroke="#fff" stroke-linecap="round" stroke-width="4"/>
    <path id="Path_1" data-name="Path 1" d="M50.964,0H34.038L-34.038-103.6V0H-50.964V-131.13h16.926L34.038-27.342V-131.13H50.964Z" transform="translate(1358 605)" fill="none" stroke="#fff" stroke-linecap="round" stroke-width="4"/>
  </g>
</svg>
