<svg xmlns="http://www.w3.org/2000/svg" width="247.88" height="45.32" viewBox="0 0 247.88 45.32">
  <g id="Symbol_3_1" data-name="Symbol 3 – 1" transform="translate(-38.38 -414.16)">
    <path id="Path_1" data-name="Path 1" d="M25.02-21.9a11.076,11.076,0,0,1,6.33,3.72,10.184,10.184,0,0,1,2.43,6.78,10.536,10.536,0,0,1-3.51,8.28Q26.76,0,20.1,0H4.38V-42.3H19.86q6.36,0,9.66,2.82a9.643,9.643,0,0,1,3.3,7.74,9.7,9.7,0,0,1-2.19,6.6A9.923,9.923,0,0,1,25.02-21.9ZM9.84-23.76h9.12a9.078,9.078,0,0,0,6.15-1.86,6.562,6.562,0,0,0,2.13-5.22,6.463,6.463,0,0,0-2.1-5.1q-2.1-1.86-6.42-1.86H9.84Zm9.24,19.2a10.15,10.15,0,0,0,6.69-1.98,6.868,6.868,0,0,0,2.37-5.58,6.811,6.811,0,0,0-2.43-5.55,10.293,10.293,0,0,0-6.75-2.01H9.84V-4.56Z" transform="translate(35 458)" fill="none" stroke="#fff" stroke-width="2"/>
    <path id="Path_2" data-name="Path 2" d="M23.76-42.84a20.554,20.554,0,0,1,10.59,2.76,19.642,19.642,0,0,1,7.41,7.71,22.983,22.983,0,0,1,2.7,11.19,22.983,22.983,0,0,1-2.7,11.19,19.642,19.642,0,0,1-7.41,7.71A20.554,20.554,0,0,1,23.76.48,20.877,20.877,0,0,1,13.11-2.28,19.516,19.516,0,0,1,5.64-9.99a22.983,22.983,0,0,1-2.7-11.19,22.983,22.983,0,0,1,2.7-11.19,19.516,19.516,0,0,1,7.47-7.71A20.877,20.877,0,0,1,23.76-42.84Zm0,5.1a15.265,15.265,0,0,0-7.83,2.01,13.927,13.927,0,0,0-5.4,5.76,18.8,18.8,0,0,0-1.95,8.79,18.847,18.847,0,0,0,1.95,8.76,13.886,13.886,0,0,0,5.4,5.79,15.265,15.265,0,0,0,7.83,2.01,14.975,14.975,0,0,0,7.77-2.04,14.128,14.128,0,0,0,5.4-5.79,18.664,18.664,0,0,0,1.95-8.73,18.8,18.8,0,0,0-1.95-8.79,13.927,13.927,0,0,0-5.4-5.76A15.148,15.148,0,0,0,23.76-37.74Z" transform="translate(71 458)" fill="none" stroke="#fff" stroke-width="2"/>
    <path id="Path_3" data-name="Path 3" d="M23.58-42.72a20.437,20.437,0,0,1,12.39,3.66,17.8,17.8,0,0,1,6.75,9.96H36.96a12.941,12.941,0,0,0-5.01-6.18,14.63,14.63,0,0,0-8.31-2.34,14.987,14.987,0,0,0-7.74,2.01,14.031,14.031,0,0,0-5.37,5.73,18.619,18.619,0,0,0-1.95,8.76,18.838,18.838,0,0,0,1.98,8.91,14,14,0,0,0,5.49,5.76,15.949,15.949,0,0,0,8.07,2.01,15.277,15.277,0,0,0,7.14-1.68,13.821,13.821,0,0,0,5.31-4.89,16.644,16.644,0,0,0,2.49-7.53H22.44v-4.08H43.68v5.04a21.007,21.007,0,0,1-3.12,9.12A18.715,18.715,0,0,1,33.6-1.98,20.384,20.384,0,0,1,23.64.42a21.038,21.038,0,0,1-10.8-2.73A18.976,18.976,0,0,1,5.55-9.93,23.4,23.4,0,0,1,2.94-21.12,23.4,23.4,0,0,1,5.55-32.31a19.182,19.182,0,0,1,7.29-7.65A20.742,20.742,0,0,1,23.58-42.72Z" transform="translate(118 458)" fill="none" stroke="#fff" stroke-width="2"/>
    <path id="Path_4" data-name="Path 4" d="M40.02-21.18A23.173,23.173,0,0,1,37.44-9.99a17.684,17.684,0,0,1-7.59,7.38A25.743,25.743,0,0,1,17.82,0H4.38V-42.3H17.82a26.249,26.249,0,0,1,12.03,2.55,17.334,17.334,0,0,1,7.59,7.32A23.305,23.305,0,0,1,40.02-21.18ZM17.4-4.92q8.28,0,12.66-4.26t4.38-12q0-7.74-4.35-12.03T17.4-37.5H9.84V-4.92Z" transform="translate(165 458)" fill="none" stroke="#fff" stroke-width="2"/>
    <path id="Path_5" data-name="Path 5" d="M29.16-9.78H10.56L7.02,0H1.14L16.8-41.52h6.18L38.58,0H32.7ZM27.6-14.04,19.86-35.4,12.12-14.04Z" transform="translate(208 458)" fill="none" stroke="#fff" stroke-width="2"/>
    <path id="Path_6" data-name="Path 6" d="M37.26,0H31.8L9.84-33.42V0H4.38V-42.3H9.84L31.8-8.82V-42.3h5.46Z" transform="translate(248 458)" fill="none" stroke="#fff" stroke-width="2"/>
  </g>
</svg>
